<?xml version="1.0" encoding="UTF-8"?>
<svg id="Ebene_2" data-name="Ebene 2" xmlns="http://www.w3.org/2000/svg" viewBox="0 0 316.39 245.47">
  <g id="Ebene_1-2" data-name="Ebene 1">
    <path d="m270.18,179.84c-.76.94-1.26,1.55-1.75,2.16-3.92,4.88-8.32,9.29-13.3,13.09-4.76,3.64-10.12,5.72-16.14,6.04-2.85.15-4.51-.84-5.64-3.46-1.91-4.42-1.56-8.93-.34-13.39,1.07-3.92,2.48-7.76,3.64-11.66.62-2.06,1.05-4.17,1.55-6.27.09-.39.11-.79.17-1.19.27-1.73.06-3.47-1.02-4.79-.73-.89-2.05-1.31-3.28-2.04-.55.99-.97,1.74-1.38,2.49-6.02,11.1-14.32,20.13-24.7,27.31-15.58,10.78-32.52,18.34-51.24,21.72-8.92,1.61-17.91,2.52-26.95,2.52-11.83,0-23.67-.42-35.5-.63-6.48-.11-12.96-.16-19.44-.25-3.13-.04-5.36-1.53-6.02-4.13-.21-.82-.26-1.77-.08-2.59.74-3.35,4.28-7.42,9.03-7.2,4.71.22,9.43.38,14.14.62,9.98.51,19.96,1.24,29.95,1.53,16.53.48,32.95-.56,48.96-5.07,5.44-1.53,10.81-3.45,16.05-5.59,11.98-4.9,21.49-13.09,29.57-23.05,8.72-10.75,15.45-22.55,18.61-36.12,5.42-23.23,2.69-45.61-7.88-66.92-9.42-18.99-23.03-34.3-41.5-45.01-8.01-4.64-16.56-7.95-25.74-9.43-15.83-2.56-30.34.83-43.56,9.81-11.69,7.95-20.47,18.48-27.17,30.83-3.55,6.54-6.54,13.33-9.2,20.28-.47,1.23-.44,2.18.24,3.35,10.53,17.88,17.79,37.12,23.54,56.98,1.97,6.82,1.45,13.44-1.66,19.83-5.06,10.4-12.87,17.56-24.32,20.36-7.14,1.74-13.8.56-19.99-3.34-3.52-2.22-5.87-5.35-7.14-9.31-1.5-4.69-1.98-9.52-1.98-14.42-.02-9.53,2.04-18.72,4.68-27.79,3.65-12.53,8.49-24.6,14-36.42.34-.72.66-1.45,1.13-2.48-3.72-4.98-7.35-10.14-11.31-15.05-7.65-9.48-16.01-18.28-25.77-25.67-7.83-5.92-16.35-10.61-25.58-13.96-2.31-.84-4.01-2.31-5.18-4.38-1.55-2.76-.41-5.63,2.65-6.39,1.33-.33,2.96-.41,4.2.06,23.79,9.12,44.63,22.47,60.55,42.73,2.02,2.57,3.83,5.31,5.74,7.98.4.56.81,1.12,1.4,1.93.55-1.16,1-2.06,1.41-2.99,6.41-14.41,15.06-27.24,26.83-37.87,10.61-9.59,22.59-16.85,36.57-20.18,27.19-6.46,51.13-.06,71.57,19.03,7.55,7.05,13.58,15.31,18.22,24.52,6.57,13.05,11.55,26.66,14.03,41.11,3.24,18.91,2.34,37.56-3.45,55.9-.14.45-.25.92-.34,1.24,1.6.79,3.27,1.35,4.62,2.35,4.88,3.61,6.1,8.73,5.58,14.48-.37,4.1-1.57,7.99-2.93,11.83-1.07,3.01-2.28,5.97-3.38,8.96-1.15,3.13-2.26,6.27-2.34,9.82,2.66.19,5.01-.52,7.25-1.54,4.52-2.05,8.23-5.2,11.49-8.89,4.94-5.61,9.09-11.76,12.36-18.48.84-1.72,2.08-2.81,3.79-3.42,2.02-.71,3.16-.02,3.22,2.13.07,2.23.11,4.52-.31,6.68-1.16,5.92-.87,11.76.4,17.6,2,9.18,5.07,17.98,9.59,26.24,2.7,4.94,5.99,9.44,10.1,13.32,3.39,3.2,7.3,5.37,11.93,6.24,4.07.76,5.92,4.22,4.45,8.15-1.16,3.09-3.52,4.88-6.65,5.67-.65.16-1.43.01-2.11-.15-5.13-1.25-9.33-4.09-13-7.78-6.27-6.31-11.1-13.62-14.82-21.66-5.11-11.05-8.41-22.58-8.85-34.83,0-.22-.1-.43-.27-1.14ZM72.99,84.3c-.34.64-.63,1.11-.85,1.61-1.8,4.18-3.65,8.34-5.38,12.55-4.68,11.41-8.6,23.05-9.98,35.38-.63,5.67-.67,11.31,1.08,16.85,1.42,4.48,4.35,7.3,8.86,8.6,6.19,1.79,12.03.6,17.71-1.94,5.5-2.46,8.9-6.65,9.82-12.67.25-1.65.29-3.34.29-5.02,0-5.25-1.2-10.3-2.74-15.27-4.3-13.81-10.79-26.61-18.02-39.07-.18-.32-.46-.59-.8-1.02Z"/>
  </g>
</svg>